<?xml version="1.0" encoding="UTF-8"?>
<svg width="68px" height="68px" viewBox="0 0 68 68" version="1.1" xmlns="http://www.w3.org/2000/svg" xmlns:xlink="http://www.w3.org/1999/xlink">
    <!-- Generator: Sketch 64 (93537) - https://sketch.com -->
    <title>关系图谱-imsi</title>
    <desc>Created with Sketch.</desc>
    <defs>
        <circle id="path-1" cx="32" cy="32" r="32"></circle>
    </defs>
    <g id="Symbols" stroke="none" stroke-width="1" fill="none" fill-rule="evenodd">
        <g id="关系圈/图谱" transform="translate(-160.000000, -34.000000)">
            <g id="Object">
                <g>
                    <g id="关系图谱-imsi" transform="translate(135.000000, 36.000000)">
                        <g transform="translate(27.000000, 0.000000)">
                            <g id="BG">
                                <circle stroke="#25DC9B" stroke-width="2" fill="#0FC484" fill-rule="evenodd" cx="32" cy="32" r="33"></circle>
                                <circle stroke="#FFFFFF" stroke-width="1" cx="32" cy="32" r="32.5"></circle>
                            </g>
                            <g id="icon/S/Bar/IMSI" transform="translate(16.000000, 16.000000)" fill="#FFFFFF">
                                <g id="IMSI">
                                    <path d="M24.5223602,0.0155279503 C25.2797531,0.0311197441 25.9995823,0.348426038 26.5220329,0.896999136 C27.0444835,1.44557224 27.3263197,2.18001469 27.3049689,2.93726708 L27.3049689,2.93726708 L27.3049689,5.32236025 L30.4850932,5.32236025 C30.8413577,5.29925126 31.1905459,5.42931418 31.4448833,5.67985548 C31.6992206,5.93039678 31.8345195,6.27758975 31.8167702,6.63416149 L31.8161694,22.6684953 C31.7984466,22.978684 31.6675355,23.2734809 31.4456635,23.4953529 C31.1920955,23.7489209 30.8432787,23.8836828 30.4850932,23.8664596 L27.3049689,23.8664596 L27.3049689,28.8950311 C27.3067395,30.4558547 26.0814143,31.7424462 24.5223602,31.8167702 L24.5223602,31.8167702 L7.42919255,31.8167702 C6.67179969,31.8011784 5.95197047,31.4838721 5.4295199,30.935299 C4.90706933,30.3867259 4.62523308,29.6522834 4.64658385,28.8950311 L4.64658385,28.8950311 L4.64658385,23.8664596 L1.2134923,23.8658588 C0.90330354,23.848136 0.608506674,23.7172249 0.386634655,23.4953529 C0.133066633,23.2417849 -0.00169523917,22.8929681 0.0155279503,22.5347826 L0.0155279503,22.5347826 L0.0155279503,6.63416149 C-0.00222137178,6.27758975 0.133077504,5.93039678 0.387414881,5.67985548 C0.641752258,5.42931418 0.990940436,5.29925126 1.34720497,5.32236025 L1.34720497,5.32236025 L4.64658385,5.32236025 L4.64658385,2.93726708 C4.64481325,1.37644348 5.87013854,0.0898519271 7.42919255,0.0155279503 L7.42919255,0.0155279503 Z M24.5223602,23.8664596 L7.42919255,23.8664596 L7.42919255,28.8950311 L24.5223602,28.8950311 L24.5223602,23.8664596 Z M17.3670807,25.9931677 L17.3670807,27.4440994 L14.584472,27.4440994 L14.584472,25.9931677 L17.3670807,25.9931677 Z M9.95341615,9.41677019 L7.96583851,9.41677019 L7.96583851,20.6863354 L10.2118012,20.6863354 L10.2118012,14.8627329 L11.4043478,18.6987578 L12.5968944,18.6987578 L13.789441,14.8627329 L13.789441,20.8254658 L16.1745342,20.8254658 L16.1745342,9.41677019 L14.1869565,9.41677019 L12.0801242,14.9819876 L9.95341615,9.41677019 Z M6.23664596,9.41677019 L3.99068323,9.41677019 L3.99068323,20.6863354 L6.23664596,20.6863354 L6.23664596,9.41677019 Z M27.5832298,9.41677019 L25.3173913,9.41677019 L25.3173913,20.6863354 L27.5832298,20.6863354 L27.5832298,9.41677019 Z M20.8931833,9.28656026 L20.6863354,9.29751553 C19.9268896,9.29251147 19.1843298,9.52152526 18.5596273,9.95341615 C17.8507999,10.5964566 17.4647617,11.5214915 17.5062112,12.4776398 C17.5062112,14.1869565 18.0428571,14.8627329 19.0962733,15.2602484 L19.0962733,15.2602484 L20.547205,15.7770186 C21.342236,16.1745342 21.4813665,16.3136646 21.4813665,17.3670807 C21.4813665,17.7645963 21.4813665,18.1621118 21.2229814,18.3012422 C21.0381886,18.4692192 20.7969274,18.5614662 20.547205,18.5596273 C20.2993206,18.5870733 20.053868,18.4903798 19.8913043,18.3012422 C19.6329193,18.0428571 19.6329193,17.7645963 19.6329193,17.2478261 L19.6329193,17.2478261 L17.3670807,17.2478261 C17.3670807,18.4403727 17.5062112,19.2354037 18.1621118,19.7521739 C18.8177112,20.3274361 19.6775681,20.6140551 20.547205,20.547205 C21.4505349,20.5492911 22.3323409,20.2715569 23.0714286,19.7521739 C23.7273292,19.3546584 23.8664596,18.5596273 23.8664596,17.5062112 C23.8664596,15.5186335 23.4689441,14.8627329 22.0180124,14.1869565 L22.0180124,14.1869565 L20.547205,13.6701863 C20.0775983,13.4738474 19.80564,12.9793778 19.8913043,12.4776398 C19.8913043,12.0801242 19.8913043,11.8018634 20.0304348,11.6826087 C20.2049303,11.5086332 20.4399713,11.4089188 20.6863354,11.4043478 C20.9383042,11.3779289 21.1861294,11.4830668 21.342236,11.6826087 C21.4659229,12.019143 21.5134404,12.3789184 21.4813665,12.7360248 L21.4813665,12.7360248 L23.8664596,12.7360248 C23.9580019,11.7604849 23.6164511,10.7939687 22.9322981,10.0925466 C22.3347666,9.51371865 21.5149549,9.22351981 20.6863354,9.29751553 Z M24.5223602,2.93726708 L7.42919255,2.93726708 L7.42919255,5.32236025 L24.5223602,5.32236025 L24.5223602,2.93726708 Z" id="形状结合"></path>
                                </g>
                            </g>
                        </g>
                    </g>
                </g>
            </g>
        </g>
    </g>
</svg>